<svg width="313" height="246" viewBox="0 0 313 246" fill="none" xmlns="http://www.w3.org/2000/svg">
<g clip-path="url(#clip0_379_3838)">
<path d="M150.161 180.623C137.109 187.984 121.998 192.189 105.891 192.189C56.3632 192.189 16.2143 152.398 16.2143 103.311C16.2143 54.2376 56.3632 14.4344 105.891 14.4344C105.891 14.4344 109.704 14.2089 115.9 14.705C154.838 19.1498 186.159 48.3696 193.349 86.0757L230.558 69.3085L206.765 77.3539C195.151 32.8778 154.411 0.0249023 105.894 0.0249023C105.843 0.0249023 105.793 0.027408 105.742 0.0299136C105.684 0.0299136 105.626 0.0249023 105.568 0.0249023C75.1951 0.0249023 47.889 13.0062 28.9509 33.657C28.8422 33.7747 28.7335 33.89 28.6248 34.0078C27.7476 34.9724 26.8931 35.9546 26.0537 36.9518C25.811 37.2374 25.5633 37.5155 25.3231 37.8037C25.0526 38.1319 24.7947 38.4727 24.5293 38.8059C10.2404 56.4851 1.67517 78.9023 1.67517 103.314C1.67517 131.599 13.1503 157.216 31.7293 175.867H31.704L33.2791 177.453C33.3043 177.488 33.3397 177.513 33.365 177.539C33.4737 177.646 33.5951 177.754 33.7164 177.874C34.2145 178.33 34.8187 178.907 35.5468 179.581C36.2622 180.242 37.099 180.901 38.0319 181.695C38.5047 182.091 38.9901 182.5 39.5109 182.933C40.0569 183.341 40.6258 183.775 41.2325 184.218C41.8266 184.674 42.4435 185.143 43.0856 185.624C43.7404 186.092 44.4432 186.548 45.1586 187.03C45.8741 187.511 46.6123 188.014 47.3758 188.53C48.1646 188.999 48.9761 189.48 49.8104 189.984C51.4461 191.028 53.2764 191.953 55.1548 192.963C58.9596 194.884 63.1765 196.829 67.8181 198.462C70.1086 199.339 72.5431 200.023 75.0156 200.805C77.5109 201.467 80.0567 202.173 82.6985 202.692C87.957 203.797 93.4708 204.649 99.1186 204.987C100.524 205.132 101.943 205.132 103.373 205.192L105.507 205.278C106.185 205.29 106.948 205.265 107.651 205.265C108.996 205.265 110.548 205.18 111.941 205.097L114.062 204.917L116.183 204.654C127.537 203.153 138.446 198.72 147.375 192.705C149.605 191.216 151.726 189.605 153.834 188.032C155.93 186.483 157.991 184.945 159.99 183.467C164.003 180.488 167.782 177.679 171.273 175.083C183.937 165.692 192.772 159.133 194.322 157.98C192.808 159.17 184.141 165.955 171.733 175.684C168.315 178.363 164.607 181.269 160.681 184.344C158.716 185.882 156.706 187.466 154.646 189.077C152.586 190.688 150.502 192.366 148.247 193.952C139.303 200.319 128.253 205.182 116.545 207.031L114.34 207.355L112.111 207.608C110.619 207.74 109.264 207.848 107.712 207.896C106.973 207.921 106.293 207.956 105.507 207.956L103.325 207.931C101.859 207.906 100.405 207.943 98.9619 207.836C93.1573 207.643 87.4868 206.911 82.0438 205.914C79.3159 205.445 76.6766 204.784 74.0827 204.173C71.5142 203.441 68.9937 202.805 66.5945 201.95C61.7582 200.389 57.3239 198.49 53.3118 196.593C52.5609 196.21 51.8202 195.837 51.0947 195.463L97.7635 242.653C102.236 247.168 109.555 247.168 114.027 242.653L180.081 175.867L182.068 173.79L209.468 146.192C209.468 146.192 151.19 180.049 150.222 180.59L150.161 180.623Z" fill="url(#paint0_linear_379_3838)"/>
<path d="M194.322 157.973L142.794 203.371C142.794 203.371 124.374 218.755 105.565 218.755C105.553 218.755 105.553 218.755 105.54 218.755C84.3317 218.983 67.9723 212.521 67.9723 212.521L51.0922 195.453C51.8203 195.827 52.5585 196.197 53.3093 196.583C57.3214 198.48 61.7557 200.379 66.592 201.94C68.9912 202.792 71.5117 203.428 74.0803 204.163C76.6741 204.774 79.316 205.435 82.0413 205.904C87.4818 206.901 93.1548 207.633 98.9594 207.826C100.4 207.933 101.857 207.898 103.323 207.921L105.505 207.946C106.293 207.946 106.971 207.911 107.709 207.886C109.261 207.838 110.616 207.73 112.108 207.598L114.338 207.345L116.542 207.021C128.25 205.172 139.3 200.307 148.245 193.942C150.5 192.356 152.583 190.675 154.643 189.067C156.704 187.458 158.716 185.872 160.678 184.334C164.604 181.259 168.313 178.353 171.731 175.674C182.976 166.86 191.144 160.458 193.703 158.451L194.15 158.103V158.09L194.322 157.973Z" fill="url(#paint1_linear_379_3838)"/>
<path d="M312.308 94.1193C311.484 96.8829 307.51 100.488 296.442 104.831C292.715 106.286 283.872 109.544 273.064 113.482L250.117 134.489L247.055 135.742L252.928 122.019L262.876 117.173C258.303 118.829 212.17 135.461 206.14 137.611C205.01 138.037 203.791 138.124 202.606 137.914L178.44 133.514C178.134 133.447 177.921 133.156 177.964 132.843L178.01 132.529L178.101 131.903C178.146 131.6 178.417 131.389 178.7 131.399L188.795 131.668L177.772 121.057C177.557 120.844 177.636 120.498 177.909 120.395L182.821 118.684C183.319 118.503 183.86 118.493 184.368 118.639C187.111 119.488 196.508 122.422 203.951 124.985C205.169 125.108 214.791 120.631 227.214 114.687L232.501 115.705L196.993 103.851C196.773 103.778 196.761 103.473 196.976 103.382L201.018 101.674C201.233 101.583 201.463 101.543 201.696 101.556L248.921 104.322C263.488 97.4041 277.921 90.9924 285.454 88.126C290.387 86.2544 293.625 86.4423 298.32 87.2115C302.603 87.2115 307.601 87.8755 309.757 88.8201C311.433 89.5592 313.041 91.6563 312.308 94.1193Z" fill="url(#paint2_linear_379_3838)"/>
<path d="M312.308 94.1194C311.484 96.883 307.51 100.489 296.442 104.831C292.715 106.286 283.872 109.544 273.064 113.482L250.117 134.489L247.055 135.742L252.928 122.019L262.876 117.173C258.303 118.829 212.17 135.461 206.14 137.611C205.01 138.037 203.791 138.124 202.606 137.914L178.44 133.514C178.134 133.447 177.921 133.156 177.964 132.843L178.01 132.53C178.01 132.53 202.492 136.917 203.759 136.872C205.035 136.827 301.217 100.541 301.217 100.541C301.217 100.541 310.184 97.2087 312.308 94.1194Z" fill="url(#paint3_linear_379_3838)"/>
<path d="M64.7656 62.059H46.0194V109.023H65.7807C71.6685 109.023 76.2704 107.882 79.5189 105.467C82.7673 103.052 84.4592 99.8312 84.4592 95.6716C84.4592 92.4512 83.4441 89.9689 81.4815 88.2245C79.5189 86.4801 76.7442 85.3396 73.1574 84.937C76.2028 84.5345 78.5714 83.3939 80.331 81.6496C82.0229 79.9052 82.9027 77.4899 82.9027 74.4709C82.9027 70.5125 81.2784 67.4263 78.0977 65.2794C74.9169 63.1325 70.4503 62.059 64.7656 62.059ZM58.4717 80.7774V71.3847H64.9686C66.6605 71.3847 68.014 71.8543 68.9615 72.6594C69.9089 73.5316 70.4503 74.6721 70.4503 76.081C70.4503 77.557 69.9089 78.6976 68.9615 79.5027C68.014 80.3749 66.6605 80.7774 64.9686 80.7774H58.4717ZM58.4717 99.6299V89.9689H65.9161C67.6756 89.9689 69.0968 90.4385 70.112 91.2436C71.1271 92.1158 71.6685 93.3234 71.6685 94.7994C71.6685 96.3425 71.1271 97.5501 70.112 98.3552C69.0968 99.2274 67.6756 99.6299 65.9161 99.6299H58.4717Z" fill="#0081C9"/>
<path d="M100.783 93.793L88.6688 93.5247C88.6688 96.5438 89.5486 99.2274 91.3082 101.643C93.0678 104.058 95.4364 106.004 98.5495 107.345C101.595 108.754 105.046 109.425 108.836 109.425C112.491 109.425 115.739 108.754 118.717 107.412C121.695 106.071 123.996 104.259 125.687 101.844C127.312 99.4958 128.191 96.8792 128.191 93.9272C128.191 90.9752 127.515 88.5599 126.229 86.7485C124.943 85.0041 123.251 83.6623 121.153 82.723C118.988 81.8509 116.348 81.1129 113.167 80.4419C109.987 79.8381 107.686 79.3685 106.332 78.9659C104.911 78.5634 103.896 78.1609 103.219 77.6241C102.542 77.0874 102.272 76.3494 102.272 75.4101C102.272 74.0683 102.813 72.9949 103.896 72.2569C104.979 71.5859 106.468 71.1834 108.227 71.1834C110.257 71.1834 111.814 71.7201 113.032 72.7265C114.183 73.7329 114.859 75.0747 114.995 76.6849H127.109C127.109 73.867 126.229 71.3176 124.605 69.0365C122.98 66.7554 120.679 64.944 117.837 63.6021C114.995 62.3274 111.746 61.6565 108.227 61.6565C104.708 61.6565 101.595 62.3274 98.7525 63.6021C95.9101 64.8769 93.7445 66.6212 92.1203 68.8352C90.4961 71.1163 89.7516 73.5987 89.7516 76.3494C89.7516 79.4356 90.3607 81.9179 91.6466 83.7965C92.8647 85.675 94.5566 87.0169 96.6546 87.9561C98.6848 88.8954 101.324 89.6334 104.505 90.3043C107.753 90.9752 110.054 91.512 111.476 91.9145C112.897 92.317 113.98 92.7196 114.656 93.2563C115.333 93.793 115.671 94.531 115.671 95.4703C115.671 96.9463 115.062 98.0869 113.844 98.8249C112.626 99.63 111.002 99.9654 109.039 99.9654C106.535 99.9654 104.573 99.4287 103.151 98.2881C101.663 97.1476 100.918 95.6716 100.783 93.793Z" fill="#0081C9"/>
<path d="M152.202 62.059H133.456V109.023H153.217C159.105 109.023 163.707 107.882 166.955 105.467C170.204 103.052 171.896 99.8312 171.896 95.6716C171.896 92.4512 170.881 89.9689 168.918 88.2245C166.955 86.4801 164.181 85.3396 160.594 84.937C163.639 84.5345 166.008 83.3939 167.767 81.6496C169.459 79.9052 170.339 77.4899 170.339 74.4709C170.339 70.5125 168.715 67.4263 165.534 65.2794C162.353 63.1325 157.887 62.059 152.202 62.059ZM145.908 80.7774V71.3847H152.405C154.097 71.3847 155.45 71.8543 156.398 72.6594C157.345 73.5316 157.887 74.6721 157.887 76.081C157.887 77.557 157.345 78.6976 156.398 79.5027C155.45 80.3749 154.097 80.7774 152.405 80.7774H145.908ZM145.908 99.6299V89.9689H153.353C155.112 89.9689 156.533 90.4385 157.548 91.2436C158.564 92.1158 159.105 93.3234 159.105 94.7994C159.105 96.3425 158.564 97.5501 157.548 98.3552C156.533 99.2274 155.112 99.6299 153.353 99.6299H145.908Z" fill="#0081C9"/>
<path d="M56.3963 118.248L63.7786 139.773H69.3309L76.6821 118.248H71.8743L66.5392 134.176L61.3282 118.248H56.3963Z" fill="#0081C9"/>
<path d="M78.5524 118.248V139.773H83.2051V118.248H78.5524Z" fill="#0081C9"/>
<path d="M90.5736 132.762L86.0139 132.7C86.0139 134.084 86.4172 135.314 87.1926 136.421C87.9371 137.528 88.9917 138.42 90.3565 139.035C91.7213 139.65 93.2722 139.957 95.0092 139.957C96.6221 139.957 98.0489 139.68 99.3517 139.065C100.654 138.481 101.647 137.682 102.391 136.636C103.105 135.591 103.477 134.422 103.477 133.1C103.477 131.747 103.167 130.671 102.547 129.871C101.926 129.072 101.151 128.457 100.158 128.057C99.1656 127.657 97.9249 127.319 96.498 127.042C95.0712 126.796 94.0166 126.55 93.3342 126.366C92.6518 126.181 92.1245 125.904 91.7523 125.597C91.3801 125.289 91.194 124.828 91.194 124.244C91.194 123.444 91.5041 122.829 92.1245 122.399C92.7449 121.968 93.5513 121.753 94.6059 121.753C95.7226 121.753 96.6221 122.061 97.3045 122.614C97.9869 123.168 98.3591 123.906 98.4832 124.828H103.043C103.012 123.537 102.64 122.399 101.895 121.353C101.151 120.339 100.158 119.539 98.8864 118.955C97.6147 118.371 96.1879 118.063 94.6059 118.063C93.055 118.063 91.6592 118.371 90.4185 118.924C89.1778 119.478 88.2162 120.246 87.5338 121.23C86.8514 122.214 86.5102 123.352 86.5102 124.582C86.5102 125.966 86.7894 127.073 87.4098 127.903C88.0301 128.733 88.8056 129.348 89.7982 129.779C90.7597 130.209 91.9694 130.548 93.3962 130.794C94.8231 131.101 95.9087 131.347 96.5911 131.532C97.2735 131.716 97.8318 131.993 98.204 132.331C98.5762 132.669 98.7934 133.131 98.7934 133.684C98.7934 134.514 98.4212 135.16 97.7388 135.621C97.0564 136.083 96.1568 136.298 95.0712 136.298C93.7374 136.298 92.6828 135.99 91.8764 135.345C91.0699 134.699 90.6356 133.838 90.5736 132.762Z" fill="#0081C9"/>
<path d="M104.03 118.248V122.214H110.295V139.773H114.948V122.214H121.214V118.248H104.03Z" fill="#0081C9"/>
<path d="M141.556 134.637C142.455 132.977 142.92 131.101 142.92 129.01C142.92 126.95 142.455 125.074 141.556 123.414C140.625 121.753 139.353 120.431 137.74 119.478C136.096 118.555 134.235 118.063 132.157 118.063C130.048 118.063 128.187 118.555 126.574 119.478C124.93 120.431 123.658 121.753 122.759 123.414C121.828 125.074 121.394 126.95 121.394 129.01C121.394 131.101 121.828 132.977 122.759 134.637C123.658 136.298 124.93 137.62 126.574 138.543C128.187 139.496 130.048 139.957 132.157 139.957C134.235 139.957 136.096 139.496 137.74 138.543C139.353 137.62 140.625 136.298 141.556 134.637ZM126.884 132.639C126.388 131.593 126.14 130.363 126.14 129.01C126.14 127.657 126.388 126.458 126.884 125.382C127.38 124.336 128.063 123.506 128.993 122.891C129.893 122.276 130.947 121.968 132.157 121.968C133.336 121.968 134.359 122.276 135.29 122.891C136.189 123.506 136.903 124.336 137.399 125.382C137.895 126.458 138.144 127.657 138.144 129.01C138.144 130.363 137.895 131.593 137.399 132.639C136.903 133.715 136.189 134.545 135.29 135.16C134.359 135.775 133.336 136.052 132.157 136.052C130.947 136.052 129.893 135.775 128.993 135.16C128.063 134.545 127.38 133.715 126.884 132.639Z" fill="#0081C9"/>
<path d="M149.429 132.762L144.869 132.7C144.869 134.084 145.273 135.314 146.048 136.421C146.793 137.528 147.847 138.42 149.212 139.035C150.577 139.65 152.128 139.957 153.865 139.957C155.478 139.957 156.904 139.68 158.207 139.065C159.51 138.481 160.503 137.682 161.247 136.636C161.96 135.591 162.333 134.422 162.333 133.1C162.333 131.747 162.022 130.671 161.402 129.871C160.782 129.072 160.006 128.457 159.014 128.057C158.021 127.657 156.78 127.319 155.354 127.042C153.927 126.796 152.872 126.55 152.19 126.366C151.507 126.181 150.98 125.904 150.608 125.597C150.236 125.289 150.049 124.828 150.049 124.244C150.049 123.444 150.36 122.829 150.98 122.399C151.6 121.968 152.407 121.753 153.461 121.753C154.578 121.753 155.478 122.061 156.16 122.614C156.842 123.168 157.215 123.906 157.339 124.828H161.898C161.867 123.537 161.495 122.399 160.751 121.353C160.006 120.339 159.014 119.539 157.742 118.955C156.47 118.371 155.043 118.063 153.461 118.063C151.911 118.063 150.515 118.371 149.274 118.924C148.033 119.478 147.072 120.246 146.389 121.23C145.707 122.214 145.366 123.352 145.366 124.582C145.366 125.966 145.645 127.073 146.265 127.903C146.886 128.733 147.661 129.348 148.654 129.779C149.615 130.209 150.825 130.548 152.252 130.794C153.679 131.101 154.764 131.347 155.447 131.532C156.129 131.716 156.687 131.993 157.06 132.331C157.432 132.669 157.649 133.131 157.649 133.684C157.649 134.514 157.277 135.16 156.594 135.621C155.912 136.083 155.012 136.298 153.927 136.298C152.593 136.298 151.538 135.99 150.732 135.345C149.925 134.699 149.491 133.838 149.429 132.762Z" fill="#0081C9"/>
</g>
<defs>
<linearGradient id="paint0_linear_379_3838" x1="1.67467" y1="123.028" x2="230.562" y2="123.028" gradientUnits="userSpaceOnUse">
<stop stop-color="#0081CC"/>
<stop offset="1" stop-color="#00C0F9"/>
</linearGradient>
<linearGradient id="paint1_linear_379_3838" x1="51.0939" y1="188.368" x2="194.322" y2="188.368" gradientUnits="userSpaceOnUse">
<stop stop-color="#0081CC"/>
<stop offset="1" stop-color="#00C0F9"/>
</linearGradient>
<linearGradient id="paint2_linear_379_3838" x1="312.49" y1="112.345" x2="177.652" y2="112.345" gradientUnits="userSpaceOnUse">
<stop stop-color="#FFC924"/>
<stop offset="1" stop-color="#FFBC00"/>
</linearGradient>
<linearGradient id="paint3_linear_379_3838" x1="312.308" y1="116.072" x2="177.961" y2="116.072" gradientUnits="userSpaceOnUse">
<stop stop-color="#FFC924"/>
<stop offset="1" stop-color="#FFBC00"/>
</linearGradient>
<clipPath id="clip0_379_3838">
<rect width="313" height="246" fill="white"/>
</clipPath>
</defs>
</svg>
