<svg width="147" height="42" viewBox="0 0 147 42" fill="none" xmlns="http://www.w3.org/2000/svg">
<path d="M7.64263 0L0.00530281 13.2301L2.99394 18.4091L10.6313 5.17906H29.0722C33.583 5.17906 37.1312 8.72724 37.1312 13.2327C37.1312 14.7973 36.6963 16.2426 35.9485 17.4677C35.2696 18.5789 34.3308 19.5044 33.2091 20.1647C32.1802 20.7719 32.1802 21.2281 33.2091 21.8353C34.3308 22.4956 35.2696 23.4211 35.9458 24.5323C36.6936 25.7574 37.1285 27.2 37.1285 28.7673C37.1285 33.2728 33.5804 36.8209 29.0696 36.8209H10.6286L5.97992 28.7699L15.1129 12.9516H29.0431L32.0317 7.77257H12.1216L0 28.7699L7.63733 42H29.0696C36.3569 42 42.3076 36.0546 42.3076 28.7673C42.3076 25.8688 41.3636 23.1851 39.7724 21.0027C41.3636 18.8175 42.3076 16.1339 42.3076 13.2354C42.3076 5.9481 36.3569 0.0026514 29.0696 0.0026514H7.64263V0ZM5.74921 23.5617L2.76057 28.7407L5.91362 34.2036H25.9722L22.9836 29.0245H8.90226L5.74921 23.5617Z" fill="#3A1078"/>
<path d="M56.9082 33.5062C54.1584 33.5062 51.9151 32.9152 50.1783 31.7333C48.4657 30.5272 47.6094 28.8266 47.6094 26.6316C47.6094 26.4145 47.6335 26.0889 47.6817 25.6547H54.1222C54.0498 26.5713 54.2669 27.2949 54.7734 27.8256C55.28 28.3563 56.0519 28.6216 57.0891 28.6216C58.0298 28.6216 58.7656 28.4166 59.2962 28.0065C59.851 27.5964 60.1284 27.0175 60.1284 26.2698C60.1284 25.4979 59.7787 24.8707 59.0791 24.3883C58.4037 23.9059 57.3424 23.3631 55.8951 22.7601C54.4961 22.1812 53.3503 21.6384 52.4578 21.1319C51.5894 20.6012 50.8296 19.8896 50.1783 18.9971C49.527 18.1047 49.2014 16.983 49.2014 15.6322C49.1773 13.9678 49.5873 12.5205 50.4316 11.2903C51.2758 10.0601 52.4457 9.11941 53.9413 8.46813C55.4368 7.81685 57.1494 7.49121 59.0791 7.49121C60.8159 7.49121 62.3596 7.76861 63.7104 8.3234C65.0613 8.85407 66.1105 9.63802 66.8583 10.6752C67.6061 11.6883 67.9799 12.8944 67.9799 14.2935C67.9799 14.6553 67.9679 14.9206 67.9438 15.0895H61.3586C61.3827 14.993 61.3948 14.8483 61.3948 14.6553C61.3948 13.9799 61.1536 13.4371 60.6711 13.0271C60.2128 12.5929 59.5736 12.3758 58.7535 12.3758C57.8851 12.3758 57.1735 12.5929 56.6187 13.0271C56.0881 13.4371 55.8227 14.004 55.8227 14.7276C55.8227 15.4513 56.1604 16.0664 56.8358 16.5729C57.5112 17.0554 58.5605 17.6222 59.9837 18.2735C61.4068 18.9248 62.5647 19.5278 63.4572 20.0826C64.3738 20.6374 65.1577 21.3852 65.809 22.3259C66.4603 23.2425 66.7859 24.3762 66.7859 25.727C66.7859 27.2226 66.3879 28.5613 65.5919 29.7433C64.7959 30.9252 63.6501 31.8539 62.1546 32.5293C60.6591 33.1806 58.9103 33.5062 56.9082 33.5062Z" fill="black"/>
<path d="M95.8066 7.85303L91.32 33.2529H85.1329L86.9781 22.7239H77.3537L75.5084 33.2529H69.3212L73.8078 7.85303H79.995L78.2221 17.8393H87.8465L89.6194 7.85303H95.8066Z" fill="black"/>
<path d="M107.871 33.5062C105.725 33.5062 103.831 33.06 102.191 32.1675C100.575 31.275 99.3203 30.0207 98.4278 28.4045C97.5353 26.7884 97.0891 24.931 97.0891 22.8325C97.0891 19.8655 97.7283 17.2242 99.0067 14.9086C100.285 12.5688 102.058 10.7476 104.326 9.44505C106.617 8.14249 109.21 7.49121 112.105 7.49121C114.276 7.49121 116.181 7.93746 117.821 8.82995C119.462 9.69832 120.728 10.9406 121.621 12.5567C122.513 14.1487 122.959 15.982 122.959 18.0564C122.959 21.0233 122.32 23.6888 121.042 26.0527C119.763 28.3925 117.978 30.2257 115.687 31.5524C113.395 32.8549 110.79 33.5062 107.871 33.5062ZM108.812 27.7894C110.404 27.7894 111.803 27.3794 113.009 26.5592C114.215 25.7391 115.144 24.6416 115.795 23.2666C116.471 21.8676 116.808 20.36 116.808 18.7439C116.808 17.0071 116.326 15.6443 115.361 14.6553C114.396 13.6663 113.045 13.1718 111.309 13.1718C109.717 13.1718 108.306 13.5819 107.075 14.402C105.869 15.2221 104.929 16.3197 104.253 17.6946C103.602 19.0454 103.276 20.5409 103.276 22.1812C103.276 23.9179 103.759 25.2928 104.724 26.3059C105.688 27.2949 107.051 27.7894 108.812 27.7894Z" fill="black"/>
<path d="M146.627 16.0302C146.386 17.5016 145.819 18.8524 144.927 20.0826C144.034 21.2887 142.816 22.2656 141.272 23.0134C139.753 23.7611 137.956 24.135 135.881 24.135H132.046L130.418 33.2529H124.231L128.717 7.85303H138.74C141.393 7.85303 143.395 8.44401 144.746 9.62596C146.097 10.7838 146.772 12.3637 146.772 14.3658C146.772 14.9689 146.724 15.5237 146.627 16.0302ZM136.243 19.2866C138.559 19.2866 139.922 18.2011 140.332 16.0302C140.38 15.6443 140.404 15.3669 140.404 15.198C140.404 14.4261 140.151 13.8352 139.644 13.4251C139.162 12.9909 138.414 12.7738 137.401 12.7738H134.036L132.914 19.2866H136.243Z" fill="black"/>
<path d="M51.0362 35.3525C51.8184 35.3525 52.4411 35.5728 52.9043 36.0132C53.3752 36.4537 53.6106 37.0461 53.6106 37.7903C53.6106 37.965 53.5916 38.1738 53.5537 38.4168C53.5233 38.5839 53.4701 38.7889 53.3942 39.0319H48.5984C48.5908 39.0851 48.587 39.1648 48.587 39.2712C48.587 39.7192 48.7237 40.0762 48.9971 40.342C49.2781 40.6078 49.6426 40.7407 50.0907 40.7407C50.7969 40.7407 51.3399 40.4483 51.7196 39.8635H53.1208C52.8322 40.4407 52.4069 40.9153 51.845 41.2874C51.283 41.652 50.6337 41.8342 49.897 41.8342C49.373 41.8342 48.9136 41.7317 48.5187 41.5267C48.1238 41.3216 47.8162 41.0292 47.596 40.6495C47.3757 40.2622 47.2656 39.8104 47.2656 39.2939C47.2656 39.0737 47.2884 38.8383 47.334 38.5877C47.4479 37.9422 47.6795 37.3764 48.0288 36.8904C48.3782 36.3967 48.8111 36.017 49.3275 35.7512C49.8515 35.4854 50.421 35.3525 51.0362 35.3525ZM52.255 38.0979C52.2702 37.9612 52.2778 37.8624 52.2778 37.8017C52.2778 37.384 52.1373 37.0536 51.8563 36.8106C51.583 36.5676 51.226 36.4461 50.7856 36.4461C50.3223 36.4461 49.9046 36.5942 49.5325 36.8904C49.1604 37.1865 48.906 37.589 48.7693 38.0979H52.255Z" fill="#27173F"/>
<path d="M59.8894 37.0612L59.6957 38.1548H55.0139L55.2075 37.0612H59.8894Z" fill="#27173F"/>
<path d="M61.0281 38.5877C61.142 37.9422 61.3698 37.3764 61.7116 36.8904C62.0609 36.3967 62.49 36.017 62.9988 35.7512C63.5152 35.4854 64.0734 35.3525 64.6733 35.3525C65.4327 35.3525 66.0289 35.5348 66.4618 35.8993C66.8946 36.2563 67.1414 36.7689 67.2022 37.4372H65.8011C65.7403 37.1258 65.5998 36.8828 65.3796 36.7081C65.1593 36.5334 64.8594 36.4461 64.4797 36.4461C63.9481 36.4461 63.4924 36.636 63.1127 37.0157C62.733 37.3878 62.4824 37.9118 62.3609 38.5877C62.3229 38.8307 62.3039 39.0282 62.3039 39.18C62.3039 39.6813 62.4292 40.0686 62.6798 40.342C62.9304 40.6078 63.2798 40.7407 63.7278 40.7407C64.4797 40.7407 65.034 40.4103 65.391 39.7496H66.7921C66.4959 40.3875 66.0631 40.8963 65.4935 41.276C64.9315 41.6482 64.2784 41.8342 63.5342 41.8342C62.7444 41.8342 62.1179 41.6102 61.6546 41.1621C61.1914 40.7065 60.9597 40.0913 60.9597 39.3167C60.9597 39.0813 60.9825 38.8383 61.0281 38.5877Z" fill="#27173F"/>
<path d="M70.4785 41.8342C69.9469 41.8342 69.4798 41.7241 69.0773 41.5039C68.6748 41.2836 68.3597 40.9723 68.1318 40.5698C67.9116 40.1673 67.8015 39.7078 67.8015 39.1914C67.8015 38.4852 67.9648 37.8397 68.2913 37.2549C68.6255 36.6701 69.0811 36.2069 69.6583 35.8651C70.243 35.5234 70.8923 35.3525 71.6062 35.3525C72.1378 35.3525 72.6086 35.4665 73.0187 35.6943C73.4288 35.9145 73.7478 36.2259 73.9756 36.6284C74.211 37.0233 74.3287 37.4827 74.3287 38.0067C74.3287 38.713 74.1579 39.3585 73.8161 39.9433C73.4744 40.528 73.0111 40.9913 72.4264 41.333C71.8416 41.6672 71.1923 41.8342 70.4785 41.8342ZM70.6379 40.7407C71.0708 40.7407 71.4657 40.6191 71.8226 40.3761C72.1872 40.1255 72.4719 39.799 72.677 39.3965C72.882 38.9864 72.9846 38.5497 72.9846 38.0865C72.9846 37.5625 72.8365 37.16 72.5403 36.879C72.2441 36.5904 71.872 36.4461 71.4239 36.4461C70.9835 36.4461 70.5886 36.5714 70.2392 36.822C69.8975 37.065 69.6279 37.3954 69.4305 37.8131C69.2406 38.2232 69.1457 38.6636 69.1457 39.1345C69.1457 39.6433 69.2824 40.0382 69.5558 40.3192C69.8367 40.6002 70.1975 40.7407 70.6379 40.7407Z" fill="#27173F"/>
<path d="M83.7231 35.3525C84.3838 35.3525 84.9116 35.531 85.3065 35.8879C85.7014 36.2449 85.8989 36.7499 85.8989 37.403C85.8989 37.5777 85.8799 37.7865 85.8419 38.0295L85.1812 41.7317H83.894L84.5205 38.2232C84.5509 38.0105 84.5661 37.8586 84.5661 37.7675C84.5661 37.3498 84.4484 37.0309 84.213 36.8106C83.9851 36.5904 83.6662 36.4803 83.2561 36.4803C82.7625 36.4803 82.3448 36.6322 82.003 36.9359C81.6689 37.2321 81.4563 37.6612 81.3651 38.2232L80.7386 41.7317H79.4514L80.0779 38.2232C80.1083 38.0105 80.1235 37.8586 80.1235 37.7675C80.1235 37.3498 80.0058 37.0309 79.7703 36.8106C79.5425 36.5904 79.2236 36.4803 78.8135 36.4803C78.3198 36.4803 77.9022 36.6322 77.5604 36.9359C77.2263 37.2321 77.0136 37.6612 76.9225 38.2232V38.189L76.296 41.7317H74.9974L76.1023 35.4551H77.4009L77.2756 36.1841C77.5262 35.9259 77.8262 35.7247 78.1755 35.5804C78.5325 35.4285 78.9008 35.3525 79.2805 35.3525C79.7817 35.3525 80.2108 35.4589 80.5677 35.6715C80.9323 35.8841 81.1867 36.1917 81.331 36.5942C81.5816 36.2145 81.9271 35.9145 82.3676 35.6943C82.808 35.4665 83.2599 35.3525 83.7231 35.3525Z" fill="#27173F"/>
<path d="M95.5595 35.3525C96.2202 35.3525 96.748 35.531 97.1429 35.8879C97.5378 36.2449 97.7352 36.7499 97.7352 37.403C97.7352 37.5777 97.7162 37.7865 97.6783 38.0295L97.0176 41.7317H95.7303L96.3569 38.2232C96.3872 38.0105 96.4024 37.8586 96.4024 37.7675C96.4024 37.3498 96.2847 37.0309 96.0493 36.8106C95.8215 36.5904 95.5025 36.4803 95.0924 36.4803C94.5988 36.4803 94.1811 36.6322 93.8394 36.9359C93.5052 37.2321 93.2926 37.6612 93.2015 38.2232L92.5749 41.7317H91.2877L91.9142 38.2232C91.9446 38.0105 91.9598 37.8586 91.9598 37.7675C91.9598 37.3498 91.8421 37.0309 91.6067 36.8106C91.3788 36.5904 91.0599 36.4803 90.6498 36.4803C90.1562 36.4803 89.7385 36.6322 89.3967 36.9359C89.0626 37.2321 88.85 37.6612 88.7588 38.2232V38.189L88.1323 41.7317H86.8337L87.9387 35.4551H89.2373L89.112 36.1841C89.3626 35.9259 89.6625 35.7247 90.0119 35.5804C90.3688 35.4285 90.7371 35.3525 91.1168 35.3525C91.6181 35.3525 92.0471 35.4589 92.4041 35.6715C92.7686 35.8841 93.023 36.1917 93.1673 36.5942C93.4179 36.2145 93.7634 35.9145 94.2039 35.6943C94.6444 35.4665 95.0962 35.3525 95.5595 35.3525Z" fill="#27173F"/>
<path d="M102.498 35.3525C103.28 35.3525 103.902 35.5728 104.366 36.0132C104.837 36.4537 105.072 37.0461 105.072 37.7903C105.072 37.965 105.053 38.1738 105.015 38.4168C104.985 38.5839 104.931 38.7889 104.856 39.0319H100.06C100.052 39.0851 100.048 39.1648 100.048 39.2712C100.048 39.7192 100.185 40.0762 100.458 40.342C100.739 40.6078 101.104 40.7407 101.552 40.7407C102.258 40.7407 102.801 40.4483 103.181 39.8635H104.582C104.294 40.4407 103.868 40.9153 103.306 41.2874C102.744 41.652 102.095 41.8342 101.358 41.8342C100.834 41.8342 100.375 41.7317 99.98 41.5267C99.5851 41.3216 99.2776 41.0292 99.0573 40.6495C98.8371 40.2622 98.727 39.8104 98.727 39.2939C98.727 39.0737 98.7498 38.8383 98.7953 38.5877C98.9092 37.9422 99.1409 37.3764 99.4902 36.8904C99.8395 36.3967 100.272 36.017 100.789 35.7512C101.313 35.4854 101.882 35.3525 102.498 35.3525ZM103.716 38.0979C103.732 37.9612 103.739 37.8624 103.739 37.8017C103.739 37.384 103.599 37.0536 103.318 36.8106C103.044 36.5676 102.687 36.4461 102.247 36.4461C101.784 36.4461 101.366 36.5942 100.994 36.8904C100.622 37.1865 100.367 37.589 100.231 38.0979H103.716Z" fill="#27173F"/>
<path d="M107.911 36.56C108.169 36.1803 108.473 35.8841 108.822 35.6715C109.179 35.4589 109.574 35.3525 110.007 35.3525L109.767 36.6967H109.437C108.936 36.6967 108.533 36.822 108.23 37.0726C107.926 37.3232 107.713 37.7561 107.592 38.3712L106.999 41.7317H105.701L106.806 35.4551H108.104L107.911 36.56Z" fill="#27173F"/>
<path d="M110.198 38.5877C110.312 37.9422 110.54 37.3764 110.881 36.8904C111.231 36.3967 111.66 36.017 112.169 35.7512C112.685 35.4854 113.243 35.3525 113.843 35.3525C114.602 35.3525 115.199 35.5348 115.632 35.8993C116.064 36.2563 116.311 36.7689 116.372 37.4372H114.971C114.91 37.1258 114.77 36.8828 114.549 36.7081C114.329 36.5334 114.029 36.4461 113.649 36.4461C113.118 36.4461 112.662 36.636 112.282 37.0157C111.903 37.3878 111.652 37.9118 111.531 38.5877C111.493 38.8307 111.474 39.0282 111.474 39.18C111.474 39.6813 111.599 40.0686 111.85 40.342C112.1 40.6078 112.45 40.7407 112.898 40.7407C113.649 40.7407 114.204 40.4103 114.561 39.7496H115.962C115.666 40.3875 115.233 40.8963 114.663 41.276C114.101 41.6482 113.448 41.8342 112.704 41.8342C111.914 41.8342 111.288 41.6102 110.824 41.1621C110.361 40.7065 110.129 40.0913 110.129 39.3167C110.129 39.0813 110.152 38.8383 110.198 38.5877Z" fill="#27173F"/>
<path d="M120.73 35.3525C121.513 35.3525 122.135 35.5728 122.599 36.0132C123.069 36.4537 123.305 37.0461 123.305 37.7903C123.305 37.965 123.286 38.1738 123.248 38.4168C123.217 38.5839 123.164 38.7889 123.088 39.0319H118.293C118.285 39.0851 118.281 39.1648 118.281 39.2712C118.281 39.7192 118.418 40.0762 118.691 40.342C118.972 40.6078 119.337 40.7407 119.785 40.7407C120.491 40.7407 121.034 40.4483 121.414 39.8635H122.815C122.526 40.4407 122.101 40.9153 121.539 41.2874C120.977 41.652 120.328 41.8342 119.591 41.8342C119.067 41.8342 118.608 41.7317 118.213 41.5267C117.818 41.3216 117.51 41.0292 117.29 40.6495C117.07 40.2622 116.96 39.8104 116.96 39.2939C116.96 39.0737 116.983 38.8383 117.028 38.5877C117.142 37.9422 117.374 37.3764 117.723 36.8904C118.072 36.3967 118.505 36.017 119.022 35.7512C119.546 35.4854 120.115 35.3525 120.73 35.3525ZM121.949 38.0979C121.964 37.9612 121.972 37.8624 121.972 37.8017C121.972 37.384 121.832 37.0536 121.551 36.8106C121.277 36.5676 120.92 36.4461 120.48 36.4461C120.017 36.4461 119.599 36.5942 119.227 36.8904C118.855 37.1865 118.6 37.589 118.464 38.0979H121.949Z" fill="#27173F"/>
</svg>
